<svg viewBox="0 0 242 45" width="726" height="135" fill="none" xmlns="http://www.w3.org/2000/svg">
<path d="M56.6914 22.4361C56.6914 12.5051 64.0648 5.73096 73.4317 5.73096C79.1938 5.73096 83.1945 8.49483 85.7752 12.1258L82.3616 14.009C80.5046 11.2858 77.1456 9.30773 73.418 9.30773C66.2904 9.30773 60.8696 14.7271 60.8696 22.4226C60.8696 30.0774 66.2904 35.5374 73.418 35.5374C77.1183 35.5374 80.491 33.5864 82.3616 30.8361L85.8162 32.7193C83.0716 36.3909 79.1665 39.1142 73.418 39.1142C64.0648 39.1548 56.6914 32.3535 56.6914 22.4361Z" fill="#4BB0C0"/>
<path d="M114.108 38.5589L111.227 31.3918H95.0192L92.1381 38.5589H87.4956L100.59 6.25952H105.601L118.723 38.5589H114.108ZM103.116 10.4189L96.2071 27.815H110.039L103.116 10.4189Z" fill="#4BB0C0"/>
<path d="M146.045 38.5589L127.052 12.7898V38.5589H122.983V6.25952H127.12L145.868 31.5002V6.25952H149.937V38.5589H146.045Z" fill="#4BB0C0"/>
<path d="M167.278 38.5589L154.183 6.25952H158.826L169.817 34.1556L180.809 6.25952H185.452L172.33 38.5589H167.278Z" fill="#4BB0C0"/>
<path d="M210.275 38.5589L207.394 31.3918H191.186L188.305 38.5589H183.663L196.757 6.25952H201.768L214.89 38.5589H210.275ZM199.297 10.4189L192.388 27.815H206.206L199.297 10.4189Z" fill="#4BB0C0"/>
<path d="M216.542 34.02L218.932 30.958C221.076 33.329 224.599 35.5645 229.186 35.5645C235.003 35.5645 236.86 32.4619 236.86 29.9826C236.86 21.6368 217.567 26.2432 217.567 14.7135C217.567 9.38902 222.359 5.75806 228.75 5.75806C233.72 5.75806 237.584 7.39741 240.315 10.2697L237.884 13.2368C235.454 10.5813 232.013 9.36193 228.449 9.36193C224.544 9.36193 221.758 11.4484 221.758 14.4968C221.758 21.7587 241.052 17.5993 241.052 29.6574C241.052 34.3587 237.843 39.1413 229.036 39.1413C223.37 39.1548 219.232 37.0006 216.542 34.02Z" fill="#4BB0C0"/>
<path d="M22.063 21.9482L34.3109 28.6547V15.6482L22.063 8.98244V21.9482Z" fill="#4BB0C0"/>
<path d="M20.8202 24.0075L8.70875 30.5379L20.8611 37.0817L32.9725 30.5514L20.8202 24.0075Z" fill="#4BB0C0"/>
<path d="M19.6872 21.894V8.98244L7.43921 15.6482V28.5869L19.6872 21.894Z" fill="#4BB0C0"/>
<path d="M6.31904 13.6159L20.8746 5.81207L35.4848 13.6295L40.4277 10.9876L20.8746 0.541748L1.40346 10.9605L6.31904 13.6159Z" fill="#4BB0C0"/>
<path d="M36.5773 15.6211V31.2424L22.0081 39.0598V44.3437L41.4929 33.8708V12.9927L36.5773 15.6211Z" fill="#4BB0C0"/>
<path d="M19.728 39.0598L5.15874 31.2424V15.6482L0.243164 12.9927V33.8708L19.728 44.3708V39.0598Z" fill="#4BB0C0"/>
</svg>
